<svg xmlns="http://www.w3.org/2000/svg" xmlns:xlink="http://www.w3.org/1999/xlink" width="1040" height="841.56"><rect width="1040" height="841.56" rx="5" ry="5" class="a"/><svg y="0%" x="0%"><circle cx="20" cy="20" r="6" fill="#ff5f58"/><circle cx="40" cy="20" r="6" fill="#ffbd2e"/><circle cx="60" cy="20" r="6" fill="#18c132"/></svg><svg height="781.56" viewBox="0 0 100 78.156" width="1000" x="15" xmlns="http://www.w3.org/2000/svg" xmlns:xlink="http://www.w3.org/1999/xlink" y="50"><style>@keyframes i{0%{transform:translateX(-100px)}6.3%{transform:translateX(-200px)}7.2%{transform:translateX(-300px)}8.1%{transform:translateX(-400px)}9.1%{transform:translateX(-500px)}9.8%{transform:translateX(-600px)}10.6%{transform:translateX(-700px)}11.3%{transform:translateX(-800px)}12.2%{transform:translateX(-900px)}13.2%{transform:translateX(-1000px)}14.1%{transform:translateX(-1100px)}14.9%{transform:translateX(-1200px)}15.8%{transform:translateX(-1300px)}16.7%{transform:translateX(-1400px)}17.7%{transform:translateX(-1500px)}18.8%{transform:translateX(-1600px)}19.5%{transform:translateX(-1700px)}20.1%{transform:translateX(-1800px)}21%{transform:translateX(-1900px)}21.8%{transform:translateX(-2000px)}22.6%{transform:translateX(-2100px)}30%{transform:translateX(-2200px)}37.8%{transform:translateX(-2300px)}38.8%{transform:translateX(-2400px)}39.7%{transform:translateX(-2500px)}48.5%{transform:translateX(-2600px)}49.5%{transform:translateX(-2700px)}50.4%{transform:translateX(-2800px)}52.1%{transform:translateX(-2900px)}53.1%{transform:translateX(-3000px)}54%{transform:translateX(-3100px)}55%{transform:translateX(-3200px)}56.7%{transform:translateX(-3300px)}57.7%{transform:translateX(-3400px)}58.6%{transform:translateX(-3500px)}59.5%{transform:translateX(-3600px)}60.5%{transform:translateX(-3700px)}62.2%{transform:translateX(-3800px)}63.2%{transform:translateX(-3900px)}64.1%{transform:translateX(-4000px)}65.1%{transform:translateX(-4100px)}66%{transform:translateX(-4200px)}66.9%{transform:translateX(-4300px)}68.7%{transform:translateX(-4400px)}69.6%{transform:translateX(-4500px)}70.6%{transform:translateX(-4600px)}72.3%{transform:translateX(-4700px)}73.2%{transform:translateX(-4800px)}74.2%{transform:translateX(-4900px)}75.9%{transform:translateX(-5000px)}76.9%{transform:translateX(-5100px)}77.8%{transform:translateX(-5200px)}78.7%{transform:translateX(-5300px)}80.5%{transform:translateX(-5400px)}81.4%{transform:translateX(-5500px)}82.4%{transform:translateX(-5600px)}83.3%{transform:translateX(-5700px)}to{transform:translateX(-5800px)}}.a{fill:#282d35}.f{fill:#b9c0cb;white-space:pre}</style><g font-family="Monaco,Consolas,Menlo,'Bitstream Vera Sans Mono','Powerline Symbols',monospace" font-size="1.67"><defs><symbol id="1"><text y="1.67" class="f">$</text></symbol><symbol id="2"><text y="1.67" class="f">$</text><text x="2.004" y="1.67" class="f">npx</text></symbol><symbol id="3"><text y="1.67" class="f">$</text><text x="2.004" y="1.67" class="f">npx</text><text x="6.012" y="1.67" class="f">ci-doctor</text></symbol><symbol id="4"><text y="1.67" class="f">$</text><text x="2.004" y="1.67" class="f">npx</text><text x="6.012" y="1.67" class="f">ci-doctor</text><text x="16.032" y="1.67" class="f">--demo</text></symbol><symbol id="5"><text y="1.67" class="f">ci-doctor</text><text x="11.022" y="1.67" class="f">2026-04-27T05:56:50.217Z</text></symbol><symbol id="6"><text y="1.67" class="f">Found</text><text x="6.012" y="1.67" class="f">7</text><text x="8.016" y="1.67" class="f">finding(s)</text><text x="20.04" y="1.67" class="f">[error</text><text x="27.054" y="1.67" class="f">1</text><text x="30.06" y="1.67" class="f">warn</text><text x="35.07" y="1.67" class="f">4</text><text x="38.076" y="1.67" class="f">info</text><text x="43.086" y="1.67" class="f">2]</text></symbol><symbol id="7"><text y="1.67" class="f">.github/workflows/ci.yml</text></symbol><symbol id="8"><text x="2.004" y="1.67" class="f">WARN</text><text x="9.018" y="1.67" class="f">8:15</text><text x="15.03" y="1.67" class="f">missing-cache</text></symbol><symbol id="9"><text x="9.018" y="1.67" class="f">actions/setup-node</text><text x="28.056" y="1.67" class="f">has</text><text x="32.064" y="1.67" class="f">no</text><text x="35.07" y="1.67" class="f">cache</text><text x="41.082" y="1.67" class="f">option.</text><text x="49.098" y="1.67" class="f">Add</text><text x="53.106" y="1.67" class="f">&apos;with:</text><text x="60.12" y="1.67" class="f">cache:</text><text x="67.134" y="1.67" class="f">&lt;ecosystem&gt;&apos;</text><text x="80.16" y="1.67" class="f">to</text><text x="83.166" y="1.67" class="f">skip</text><text x="88.176" y="1.67" class="f">dep</text><text x="92.184" y="1.67" class="f">re-downl</text></symbol><symbol id="10"><text y="1.67" class="f">oads.</text><text x="6.012" y="1.67" class="f">Saves</text><text x="12.024" y="1.67" class="f">30-90</text><text x="18.036" y="1.67" class="f">seconds</text><text x="26.052" y="1.67" class="f">per</text><text x="30.06" y="1.67" class="f">run.</text></symbol><symbol id="11"><text x="9.018" y="1.67" class="f">|</text><text x="11.022" y="1.67" class="f">with:</text></symbol><symbol id="12"><text x="9.018" y="1.67" class="f">|</text><text x="13.026" y="1.67" class="f">cache:</text><text x="20.04" y="1.67" class="f">npm</text><text x="26.052" y="1.67" class="f">#</text><text x="28.056" y="1.67" class="f">or</text><text x="31.062" y="1.67" class="f">pip,</text><text x="36.072" y="1.67" class="f">gradle,</text><text x="44.088" y="1.67" class="f">maven,</text><text x="51.102" y="1.67" class="f">go,</text><text x="55.11" y="1.67" class="f">etc.</text></symbol><symbol id="13"><text x="2.004" y="1.67" class="f">WARN</text><text x="9.018" y="1.67" class="f">2:5</text><text x="14.028" y="1.67" class="f">missing-concurrency</text></symbol><symbol id="14"><text x="9.018" y="1.67" class="f">No</text><text x="12.024" y="1.67" class="f">top-level</text><text x="22.044" y="1.67" class="f">concurrency</text><text x="34.068" y="1.67" class="f">block.</text><text x="41.082" y="1.67" class="f">New</text><text x="45.09" y="1.67" class="f">pushes</text><text x="52.104" y="1.67" class="f">will</text><text x="57.114" y="1.67" class="f">not</text><text x="61.122" y="1.67" class="f">cancel</text><text x="68.136" y="1.67" class="f">in-flight</text><text x="78.156" y="1.67" class="f">runs</text><text x="83.166" y="1.67" class="f">of</text><text x="86.172" y="1.67" class="f">stale</text><text x="92.184" y="1.67" class="f">commits,</text></symbol><symbol id="15"><text x="1.002" y="1.67" class="f">doubling</text><text x="10.02" y="1.67" class="f">spend</text><text x="16.032" y="1.67" class="f">on</text><text x="19.038" y="1.67" class="f">rapid-push</text><text x="30.06" y="1.67" class="f">branches.</text></symbol><symbol id="16"><text x="9.018" y="1.67" class="f">|</text><text x="11.022" y="1.67" class="f">concurrency:</text></symbol><symbol id="17"><text x="9.018" y="1.67" class="f">|</text><text x="13.026" y="1.67" class="f">group:</text><text x="20.04" y="1.67" class="f">${{</text><text x="24.048" y="1.67" class="f">github.workflow</text><text x="40.08" y="1.67" class="f">}}-${{</text><text x="47.094" y="1.67" class="f">github.ref</text><text x="58.116" y="1.67" class="f">}}</text></symbol><symbol id="18"><text x="9.018" y="1.67" class="f">|</text><text x="13.026" y="1.67" class="f">cancel-in-progress:</text><text x="33.066" y="1.67" class="f">true</text></symbol><symbol id="19"><text x="2.004" y="1.67" class="f">INFO</text><text x="9.018" y="1.67" class="f">2:5</text><text x="14.028" y="1.67" class="f">wide-trigger</text></symbol><symbol id="20"><text x="9.018" y="1.67" class="f">on:</text><text x="13.026" y="1.67" class="f">push</text><text x="18.036" y="1.67" class="f">fires</text><text x="24.048" y="1.67" class="f">on</text><text x="27.054" y="1.67" class="f">every</text><text x="33.066" y="1.67" class="f">branch.</text><text x="41.082" y="1.67" class="f">Restrict</text><text x="50.1" y="1.67" class="f">to</text><text x="53.106" y="1.67" class="f">main</text><text x="58.116" y="1.67" class="f">or</text><text x="61.122" y="1.67" class="f">release</text><text x="69.138" y="1.67" class="f">branches</text><text x="78.156" y="1.67" class="f">unless</text><text x="85.17" y="1.67" class="f">you</text><text x="89.178" y="1.67" class="f">need</text><text x="94.188" y="1.67" class="f">every-</text></symbol><symbol id="21"><text y="1.67" class="f">branch</text><text x="7.014" y="1.67" class="f">runs.</text></symbol><symbol id="22"><text x="9.018" y="1.67" class="f">|</text><text x="11.022" y="1.67" class="f">on:</text></symbol><symbol id="23"><text x="9.018" y="1.67" class="f">|</text><text x="13.026" y="1.67" class="f">push:</text></symbol><symbol id="24"><text x="9.018" y="1.67" class="f">|</text><text x="15.03" y="1.67" class="f">branches:</text><text x="25.05" y="1.67" class="f">[main]</text></symbol><symbol id="25"><text x="9.018" y="1.67" class="f">|</text><text x="13.026" y="1.67" class="f">pull_request:</text></symbol><symbol id="26"><text x="2.004" y="1.67" class="f">WARN</text><text x="9.018" y="1.67" class="f">5:5</text><text x="14.028" y="1.67" class="f">missing-timeout</text></symbol><symbol id="27"><text x="9.018" y="1.67" class="f">Job</text><text x="13.026" y="1.67" class="f">&apos;build&apos;</text><text x="21.042" y="1.67" class="f">has</text><text x="25.05" y="1.67" class="f">no</text><text x="28.056" y="1.67" class="f">timeout-minutes.</text><text x="45.09" y="1.67" class="f">Default</text><text x="53.106" y="1.67" class="f">is</text><text x="56.112" y="1.67" class="f">360</text><text x="60.12" y="1.67" class="f">(6h).</text><text x="66.132" y="1.67" class="f">A</text><text x="68.136" y="1.67" class="f">hung</text><text x="73.146" y="1.67" class="f">job</text><text x="77.154" y="1.67" class="f">can</text><text x="81.162" y="1.67" class="f">drain</text><text x="87.174" y="1.67" class="f">your</text><text x="92.184" y="1.67" class="f">CI</text><text x="95.19" y="1.67" class="f">budge</text></symbol><symbol id="28"><text y="1.67" class="f">t.</text></symbol><symbol id="29"><text x="9.018" y="1.67" class="f">|</text><text x="11.022" y="1.67" class="f">timeout-minutes:</text><text x="28.056" y="1.67" class="f">15</text><text x="33.066" y="1.67" class="f">#</text><text x="35.07" y="1.67" class="f">tune</text><text x="40.08" y="1.67" class="f">to</text><text x="43.086" y="1.67" class="f">your</text><text x="48.096" y="1.67" class="f">job;</text><text x="53.106" y="1.67" class="f">cap</text><text x="57.114" y="1.67" class="f">below</text><text x="63.126" y="1.67" class="f">the</text><text x="67.134" y="1.67" class="f">default</text><text x="75.15" y="1.67" class="f">360.</text></symbol><symbol id="30"><text x="2.004" y="1.67" class="f">ERROR</text><text x="9.018" y="1.67" class="f">7:15</text><text x="15.03" y="1.67" class="f">deprecated-action</text></symbol><symbol id="31"><text x="9.018" y="1.67" class="f">actions/checkout@v3</text><text x="29.058" y="1.67" class="f">is</text><text x="32.064" y="1.67" class="f">on</text><text x="35.07" y="1.67" class="f">a</text><text x="37.074" y="1.67" class="f">deprecated</text><text x="48.096" y="1.67" class="f">major.</text><text x="55.11" y="1.67" class="f">Latest</text><text x="62.124" y="1.67" class="f">stable:</text><text x="70.14" y="1.67" class="f">v4.</text></symbol><symbol id="32"><text x="9.018" y="1.67" class="f">|</text><text x="11.022" y="1.67" class="f">actions/checkout@v4</text></symbol><symbol id="33"><text x="2.004" y="1.67" class="f">WARN</text><text x="9.018" y="1.67" class="f">1:7</text><text x="14.028" y="1.67" class="f">missing-permissions</text></symbol><symbol id="34"><text x="9.018" y="1.67" class="f">No</text><text x="12.024" y="1.67" class="f">top-level</text><text x="22.044" y="1.67" class="f">permissions</text><text x="34.068" y="1.67" class="f">block.</text><text x="41.082" y="1.67" class="f">GITHUB_TOKEN</text><text x="54.108" y="1.67" class="f">inherits</text><text x="63.126" y="1.67" class="f">the</text><text x="67.134" y="1.67" class="f">repo</text><text x="72.144" y="1.67" class="f">default,</text><text x="81.162" y="1.67" class="f">often</text><text x="87.174" y="1.67" class="f">write-all.</text><text x="98.196" y="1.67" class="f">Se</text></symbol><symbol id="35"><text y="1.67" class="f">t</text><text x="2.004" y="1.67" class="f">least-privilege</text><text x="18.036" y="1.67" class="f">explicitly.</text></symbol><symbol id="36"><text x="9.018" y="1.67" class="f">|</text><text x="11.022" y="1.67" class="f">permissions:</text></symbol><symbol id="37"><text x="9.018" y="1.67" class="f">|</text><text x="13.026" y="1.67" class="f">contents:</text><text x="23.046" y="1.67" class="f">read</text><text x="30.06" y="1.67" class="f">#</text><text x="32.064" y="1.67" class="f">add</text><text x="36.072" y="1.67" class="f">other</text><text x="42.084" y="1.67" class="f">scopes</text><text x="49.098" y="1.67" class="f">only</text><text x="54.108" y="1.67" class="f">as</text><text x="57.114" y="1.67" class="f">jobs</text><text x="62.124" y="1.67" class="f">need</text><text x="67.134" y="1.67" class="f">them.</text></symbol><symbol id="38"><text x="2.004" y="1.67" class="f">INFO</text><text x="9.018" y="1.67" class="f">14:15</text><text x="16.032" y="1.67" class="f">artifact-no-retention</text></symbol><symbol id="39"><text x="9.018" y="1.67" class="f">upload-artifact</text><text x="25.05" y="1.67" class="f">has</text><text x="29.058" y="1.67" class="f">no</text><text x="32.064" y="1.67" class="f">retention-days.</text><text x="48.096" y="1.67" class="f">CI</text><text x="51.102" y="1.67" class="f">artifacts</text><text x="61.122" y="1.67" class="f">pile</text><text x="66.132" y="1.67" class="f">up</text><text x="69.138" y="1.67" class="f">at</text><text x="72.144" y="1.67" class="f">the</text><text x="76.152" y="1.67" class="f">repo</text><text x="81.162" y="1.67" class="f">default</text><text x="89.178" y="1.67" class="f">(usually</text><text x="98.196" y="1.67" class="f">90</text></symbol><symbol id="40"><text y="1.67" class="f">d).</text><text x="4.008" y="1.67" class="f">Set</text><text x="8.016" y="1.67" class="f">7-14d</text><text x="14.028" y="1.67" class="f">unless</text><text x="21.042" y="1.67" class="f">you</text><text x="25.05" y="1.67" class="f">need</text><text x="30.06" y="1.67" class="f">long-term</text><text x="40.08" y="1.67" class="f">retention.</text></symbol><symbol id="41"><text x="9.018" y="1.67" class="f">|</text><text x="13.026" y="1.67" class="f">retention-days:</text><text x="29.058" y="1.67" class="f">7</text></symbol><symbol id="a"><path fill="transparent" d="M0 0h100v37H0z"/></symbol><symbol id="b"><path fill="#6f7683" d="M0 0h1.102v2.171H0z"/></symbol></defs><path class="a" d="M0 0h100v78.156H0z"/><g style="animation-duration:6.35276284527977s;animation-iteration-count:infinite;animation-name:i;animation-timing-function:steps(1,end)"><svg width="5900"><svg><use xlink:href="#a"/><use xlink:href="#b" x="-.004"/></svg><svg x="100"><use xlink:href="#a"/><use xlink:href="#b" x="1.996"/><use xlink:href="#1"/></svg><svg x="200"><use xlink:href="#a"/><use xlink:href="#b" x="2.996"/><text y="1.67" class="f">$</text><text x="2.004" y="1.67" class="f">n</text></svg><svg x="300"><use xlink:href="#a"/><use xlink:href="#b" x="3.996"/><text y="1.67" class="f">$</text><text x="2.004" y="1.67" class="f">np</text></svg><svg x="400"><use xlink:href="#a"/><use xlink:href="#b" x="4.996"/><use xlink:href="#2"/></svg><svg x="500"><use xlink:href="#a"/><use xlink:href="#b" x="5.996"/><use xlink:href="#2"/></svg><svg x="600"><use xlink:href="#a"/><use xlink:href="#b" x="6.996"/><text y="1.67" class="f">$</text><text x="2.004" y="1.67" class="f">npx</text><text x="6.012" y="1.67" class="f">c</text></svg><svg x="700"><use xlink:href="#a"/><use xlink:href="#b" x="7.996"/><text y="1.67" class="f">$</text><text x="2.004" y="1.67" class="f">npx</text><text x="6.012" y="1.67" class="f">ci</text></svg><svg x="800"><use xlink:href="#a"/><use xlink:href="#b" x="8.996"/><text y="1.67" class="f">$</text><text x="2.004" y="1.67" class="f">npx</text><text x="6.012" y="1.67" class="f">ci-</text></svg><svg x="900"><use xlink:href="#a"/><use xlink:href="#b" x="9.996"/><text y="1.67" class="f">$</text><text x="2.004" y="1.67" class="f">npx</text><text x="6.012" y="1.67" class="f">ci-d</text></svg><svg x="1000"><use xlink:href="#a"/><use xlink:href="#b" x="10.996"/><text y="1.67" class="f">$</text><text x="2.004" y="1.67" class="f">npx</text><text x="6.012" y="1.67" class="f">ci-do</text></svg><svg x="1100"><use xlink:href="#a"/><use xlink:href="#b" x="11.996"/><text y="1.67" class="f">$</text><text x="2.004" y="1.67" class="f">npx</text><text x="6.012" y="1.67" class="f">ci-doc</text></svg><svg x="1200"><use xlink:href="#a"/><use xlink:href="#b" x="12.996"/><text y="1.67" class="f">$</text><text x="2.004" y="1.67" class="f">npx</text><text x="6.012" y="1.67" class="f">ci-doct</text></svg><svg x="1300"><use xlink:href="#a"/><use xlink:href="#b" x="13.996"/><text y="1.67" class="f">$</text><text x="2.004" y="1.67" class="f">npx</text><text x="6.012" y="1.67" class="f">ci-docto</text></svg><svg x="1400"><use xlink:href="#a"/><use xlink:href="#b" x="14.996"/><use xlink:href="#3"/></svg><svg x="1500"><use xlink:href="#a"/><use xlink:href="#b" x="15.996"/><use xlink:href="#3"/></svg><svg x="1600"><use xlink:href="#a"/><use xlink:href="#b" x="16.996"/><text y="1.67" class="f">$</text><text x="2.004" y="1.67" class="f">npx</text><text x="6.012" y="1.67" class="f">ci-doctor</text><text x="16.032" y="1.67" class="f">-</text></svg><svg x="1700"><use xlink:href="#a"/><use xlink:href="#b" x="17.996"/><text y="1.67" class="f">$</text><text x="2.004" y="1.67" class="f">npx</text><text x="6.012" y="1.67" class="f">ci-doctor</text><text x="16.032" y="1.67" class="f">--</text></svg><svg x="1800"><use xlink:href="#a"/><use xlink:href="#b" x="18.996"/><text y="1.67" class="f">$</text><text x="2.004" y="1.67" class="f">npx</text><text x="6.012" y="1.67" class="f">ci-doctor</text><text x="16.032" y="1.67" class="f">--d</text></svg><svg x="1900"><use xlink:href="#a"/><use xlink:href="#b" x="19.996"/><text y="1.67" class="f">$</text><text x="2.004" y="1.67" class="f">npx</text><text x="6.012" y="1.67" class="f">ci-doctor</text><text x="16.032" y="1.67" class="f">--de</text></svg><svg x="2000"><use xlink:href="#a"/><use xlink:href="#b" x="20.996"/><text y="1.67" class="f">$</text><text x="2.004" y="1.67" class="f">npx</text><text x="6.012" y="1.67" class="f">ci-doctor</text><text x="16.032" y="1.67" class="f">--dem</text></svg><svg x="2100"><use xlink:href="#a"/><use xlink:href="#b" x="21.996"/><use xlink:href="#4"/></svg><svg x="2200"><use xlink:href="#a"/><use xlink:href="#b" x="-.004" y="2.146"/><use xlink:href="#4"/></svg><svg x="2300"><use xlink:href="#a"/><use xlink:href="#b" x="-.004" y="4.317"/><use xlink:href="#4"/><use xlink:href="#5" y="2.171"/></svg><svg x="2400"><use xlink:href="#a"/><use xlink:href="#b" x="-.004" y="6.488"/><use xlink:href="#4"/><use xlink:href="#5" y="2.171"/></svg><svg x="2500"><use xlink:href="#a"/><use xlink:href="#b" x="-.004" y="8.659"/><use xlink:href="#4"/><use xlink:href="#5" y="2.171"/><use xlink:href="#6" y="6.513"/></svg><svg x="2600"><use xlink:href="#a"/><use xlink:href="#b" x="-.004" y="10.83"/><use xlink:href="#4"/><use xlink:href="#5" y="2.171"/><use xlink:href="#6" y="6.513"/></svg><svg x="2700"><use xlink:href="#a"/><use xlink:href="#b" x="-.004" y="13.001"/><use xlink:href="#4"/><use xlink:href="#5" y="2.171"/><use xlink:href="#6" y="6.513"/><use xlink:href="#7" y="10.855"/></svg><svg x="2800"><use xlink:href="#a"/><use xlink:href="#b" x="-.004" y="15.172"/><use xlink:href="#4"/><use xlink:href="#5" y="2.171"/><use xlink:href="#6" y="6.513"/><use xlink:href="#7" y="10.855"/><use xlink:href="#8" y="13.026"/></svg><svg x="2900"><use xlink:href="#a"/><use xlink:href="#b" x="-.004" y="19.514"/><use xlink:href="#4"/><use xlink:href="#5" y="2.171"/><use xlink:href="#6" y="6.513"/><use xlink:href="#7" y="10.855"/><use xlink:href="#8" y="13.026"/><use xlink:href="#9" y="15.197"/><use xlink:href="#10" y="17.368"/></svg><svg x="3000"><use xlink:href="#a"/><use xlink:href="#b" x="-.004" y="21.685"/><use xlink:href="#4"/><use xlink:href="#5" y="2.171"/><use xlink:href="#6" y="6.513"/><use xlink:href="#7" y="10.855"/><use xlink:href="#8" y="13.026"/><use xlink:href="#9" y="15.197"/><use xlink:href="#10" y="17.368"/><use xlink:href="#11" y="19.539"/></svg><svg x="3100"><use xlink:href="#a"/><use xlink:href="#b" x="-.004" y="23.856"/><use xlink:href="#4"/><use xlink:href="#5" y="2.171"/><use xlink:href="#6" y="6.513"/><use xlink:href="#7" y="10.855"/><use xlink:href="#8" y="13.026"/><use xlink:href="#9" y="15.197"/><use xlink:href="#10" y="17.368"/><use xlink:href="#11" y="19.539"/><use xlink:href="#12" y="21.71"/></svg><svg x="3200"><use xlink:href="#a"/><use xlink:href="#b" x="-.004" y="26.027"/><use xlink:href="#4"/><use xlink:href="#5" y="2.171"/><use xlink:href="#6" y="6.513"/><use xlink:href="#7" y="10.855"/><use xlink:href="#8" y="13.026"/><use xlink:href="#9" y="15.197"/><use xlink:href="#10" y="17.368"/><use xlink:href="#11" y="19.539"/><use xlink:href="#12" y="21.71"/><use xlink:href="#13" y="23.881"/></svg><svg x="3300"><use xlink:href="#a"/><use xlink:href="#b" x="-.004" y="30.369"/><use xlink:href="#4"/><use xlink:href="#5" y="2.171"/><use xlink:href="#6" y="6.513"/><use xlink:href="#7" y="10.855"/><use xlink:href="#8" y="13.026"/><use xlink:href="#9" y="15.197"/><use xlink:href="#10" y="17.368"/><use xlink:href="#11" y="19.539"/><use xlink:href="#12" y="21.71"/><use xlink:href="#13" y="23.881"/><use xlink:href="#14" y="26.052"/><use xlink:href="#15" y="28.223"/></svg><svg x="3400"><use xlink:href="#a"/><use xlink:href="#b" x="-.004" y="32.54"/><use xlink:href="#4"/><use xlink:href="#5" y="2.171"/><use xlink:href="#6" y="6.513"/><use xlink:href="#7" y="10.855"/><use xlink:href="#8" y="13.026"/><use xlink:href="#9" y="15.197"/><use xlink:href="#10" y="17.368"/><use xlink:href="#11" y="19.539"/><use xlink:href="#12" y="21.71"/><use xlink:href="#13" y="23.881"/><use xlink:href="#14" y="26.052"/><use xlink:href="#15" y="28.223"/><use xlink:href="#16" y="30.394"/></svg><svg x="3500"><use xlink:href="#a"/><use xlink:href="#b" x="-.004" y="34.711"/><use xlink:href="#4"/><use xlink:href="#5" y="2.171"/><use xlink:href="#6" y="6.513"/><use xlink:href="#7" y="10.855"/><use xlink:href="#8" y="13.026"/><use xlink:href="#9" y="15.197"/><use xlink:href="#10" y="17.368"/><use xlink:href="#11" y="19.539"/><use xlink:href="#12" y="21.71"/><use xlink:href="#13" y="23.881"/><use xlink:href="#14" y="26.052"/><use xlink:href="#15" y="28.223"/><use xlink:href="#16" y="30.394"/><use xlink:href="#17" y="32.565"/></svg><svg x="3600"><use xlink:href="#a"/><use xlink:href="#b" x="-.004" y="36.882"/><use xlink:href="#4"/><use xlink:href="#5" y="2.171"/><use xlink:href="#6" y="6.513"/><use xlink:href="#7" y="10.855"/><use xlink:href="#8" y="13.026"/><use xlink:href="#9" y="15.197"/><use xlink:href="#10" y="17.368"/><use xlink:href="#11" y="19.539"/><use xlink:href="#12" y="21.71"/><use xlink:href="#13" y="23.881"/><use xlink:href="#14" y="26.052"/><use xlink:href="#15" y="28.223"/><use xlink:href="#16" y="30.394"/><use xlink:href="#17" y="32.565"/><use xlink:href="#18" y="34.736"/></svg><svg x="3700"><use xlink:href="#a"/><use xlink:href="#b" x="-.004" y="39.053"/><use xlink:href="#4"/><use xlink:href="#5" y="2.171"/><use xlink:href="#6" y="6.513"/><use xlink:href="#7" y="10.855"/><use xlink:href="#8" y="13.026"/><use xlink:href="#9" y="15.197"/><use xlink:href="#10" y="17.368"/><use xlink:href="#11" y="19.539"/><use xlink:href="#12" y="21.71"/><use xlink:href="#13" y="23.881"/><use xlink:href="#14" y="26.052"/><use xlink:href="#15" y="28.223"/><use xlink:href="#16" y="30.394"/><use xlink:href="#17" y="32.565"/><use xlink:href="#18" y="34.736"/><use xlink:href="#19" y="36.907"/></svg><svg x="3800"><use xlink:href="#a"/><use xlink:href="#b" x="-.004" y="43.395"/><use xlink:href="#4"/><use xlink:href="#5" y="2.171"/><use xlink:href="#6" y="6.513"/><use xlink:href="#7" y="10.855"/><use xlink:href="#8" y="13.026"/><use xlink:href="#9" y="15.197"/><use xlink:href="#10" y="17.368"/><use xlink:href="#11" y="19.539"/><use xlink:href="#12" y="21.71"/><use xlink:href="#13" y="23.881"/><use xlink:href="#14" y="26.052"/><use xlink:href="#15" y="28.223"/><use xlink:href="#16" y="30.394"/><use xlink:href="#17" y="32.565"/><use xlink:href="#18" y="34.736"/><use xlink:href="#19" y="36.907"/><use xlink:href="#20" y="39.078"/><use xlink:href="#21" y="41.249"/></svg><svg x="3900"><use xlink:href="#a"/><use xlink:href="#b" x="-.004" y="45.566"/><use xlink:href="#4"/><use xlink:href="#5" y="2.171"/><use xlink:href="#6" y="6.513"/><use xlink:href="#7" y="10.855"/><use xlink:href="#8" y="13.026"/><use xlink:href="#9" y="15.197"/><use xlink:href="#10" y="17.368"/><use xlink:href="#11" y="19.539"/><use xlink:href="#12" y="21.71"/><use xlink:href="#13" y="23.881"/><use xlink:href="#14" y="26.052"/><use xlink:href="#15" y="28.223"/><use xlink:href="#16" y="30.394"/><use xlink:href="#17" y="32.565"/><use xlink:href="#18" y="34.736"/><use xlink:href="#19" y="36.907"/><use xlink:href="#20" y="39.078"/><use xlink:href="#21" y="41.249"/><use xlink:href="#22" y="43.42"/></svg><svg x="4000"><use xlink:href="#a"/><use xlink:href="#b" x="-.004" y="47.737"/><use xlink:href="#4"/><use xlink:href="#5" y="2.171"/><use xlink:href="#6" y="6.513"/><use xlink:href="#7" y="10.855"/><use xlink:href="#8" y="13.026"/><use xlink:href="#9" y="15.197"/><use xlink:href="#10" y="17.368"/><use xlink:href="#11" y="19.539"/><use xlink:href="#12" y="21.71"/><use xlink:href="#13" y="23.881"/><use xlink:href="#14" y="26.052"/><use xlink:href="#15" y="28.223"/><use xlink:href="#16" y="30.394"/><use xlink:href="#17" y="32.565"/><use xlink:href="#18" y="34.736"/><use xlink:href="#19" y="36.907"/><use xlink:href="#20" y="39.078"/><use xlink:href="#21" y="41.249"/><use xlink:href="#22" y="43.42"/><use xlink:href="#23" y="45.591"/></svg><svg x="4100"><use xlink:href="#a"/><use xlink:href="#b" x="-.004" y="49.908"/><use xlink:href="#4"/><use xlink:href="#5" y="2.171"/><use xlink:href="#6" y="6.513"/><use xlink:href="#7" y="10.855"/><use xlink:href="#8" y="13.026"/><use xlink:href="#9" y="15.197"/><use xlink:href="#10" y="17.368"/><use xlink:href="#11" y="19.539"/><use xlink:href="#12" y="21.71"/><use xlink:href="#13" y="23.881"/><use xlink:href="#14" y="26.052"/><use xlink:href="#15" y="28.223"/><use xlink:href="#16" y="30.394"/><use xlink:href="#17" y="32.565"/><use xlink:href="#18" y="34.736"/><use xlink:href="#19" y="36.907"/><use xlink:href="#20" y="39.078"/><use xlink:href="#21" y="41.249"/><use xlink:href="#22" y="43.42"/><use xlink:href="#23" y="45.591"/><use xlink:href="#24" y="47.762"/></svg><svg x="4200"><use xlink:href="#a"/><use xlink:href="#b" x="-.004" y="52.079"/><use xlink:href="#4"/><use xlink:href="#5" y="2.171"/><use xlink:href="#6" y="6.513"/><use xlink:href="#7" y="10.855"/><use xlink:href="#8" y="13.026"/><use xlink:href="#9" y="15.197"/><use xlink:href="#10" y="17.368"/><use xlink:href="#11" y="19.539"/><use xlink:href="#12" y="21.71"/><use xlink:href="#13" y="23.881"/><use xlink:href="#14" y="26.052"/><use xlink:href="#15" y="28.223"/><use xlink:href="#16" y="30.394"/><use xlink:href="#17" y="32.565"/><use xlink:href="#18" y="34.736"/><use xlink:href="#19" y="36.907"/><use xlink:href="#20" y="39.078"/><use xlink:href="#21" y="41.249"/><use xlink:href="#22" y="43.42"/><use xlink:href="#23" y="45.591"/><use xlink:href="#24" y="47.762"/><use xlink:href="#25" y="49.933"/></svg><svg x="4300"><use xlink:href="#a"/><use xlink:href="#b" x="-.004" y="54.25"/><use xlink:href="#4"/><use xlink:href="#5" y="2.171"/><use xlink:href="#6" y="6.513"/><use xlink:href="#7" y="10.855"/><use xlink:href="#8" y="13.026"/><use xlink:href="#9" y="15.197"/><use xlink:href="#10" y="17.368"/><use xlink:href="#11" y="19.539"/><use xlink:href="#12" y="21.71"/><use xlink:href="#13" y="23.881"/><use xlink:href="#14" y="26.052"/><use xlink:href="#15" y="28.223"/><use xlink:href="#16" y="30.394"/><use xlink:href="#17" y="32.565"/><use xlink:href="#18" y="34.736"/><use xlink:href="#19" y="36.907"/><use xlink:href="#20" y="39.078"/><use xlink:href="#21" y="41.249"/><use xlink:href="#22" y="43.42"/><use xlink:href="#23" y="45.591"/><use xlink:href="#24" y="47.762"/><use xlink:href="#25" y="49.933"/><use xlink:href="#26" y="52.104"/></svg><svg x="4400"><use xlink:href="#a"/><use xlink:href="#b" x="-.004" y="58.592"/><use xlink:href="#4"/><use xlink:href="#5" y="2.171"/><use xlink:href="#6" y="6.513"/><use xlink:href="#7" y="10.855"/><use xlink:href="#8" y="13.026"/><use xlink:href="#9" y="15.197"/><use xlink:href="#10" y="17.368"/><use xlink:href="#11" y="19.539"/><use xlink:href="#12" y="21.71"/><use xlink:href="#13" y="23.881"/><use xlink:href="#14" y="26.052"/><use xlink:href="#15" y="28.223"/><use xlink:href="#16" y="30.394"/><use xlink:href="#17" y="32.565"/><use xlink:href="#18" y="34.736"/><use xlink:href="#19" y="36.907"/><use xlink:href="#20" y="39.078"/><use xlink:href="#21" y="41.249"/><use xlink:href="#22" y="43.42"/><use xlink:href="#23" y="45.591"/><use xlink:href="#24" y="47.762"/><use xlink:href="#25" y="49.933"/><use xlink:href="#26" y="52.104"/><use xlink:href="#27" y="54.275"/><use xlink:href="#28" y="56.446"/></svg><svg x="4500"><use xlink:href="#a"/><use xlink:href="#b" x="-.004" y="60.763"/><use xlink:href="#4"/><use xlink:href="#5" y="2.171"/><use xlink:href="#6" y="6.513"/><use xlink:href="#7" y="10.855"/><use xlink:href="#8" y="13.026"/><use xlink:href="#9" y="15.197"/><use xlink:href="#10" y="17.368"/><use xlink:href="#11" y="19.539"/><use xlink:href="#12" y="21.71"/><use xlink:href="#13" y="23.881"/><use xlink:href="#14" y="26.052"/><use xlink:href="#15" y="28.223"/><use xlink:href="#16" y="30.394"/><use xlink:href="#17" y="32.565"/><use xlink:href="#18" y="34.736"/><use xlink:href="#19" y="36.907"/><use xlink:href="#20" y="39.078"/><use xlink:href="#21" y="41.249"/><use xlink:href="#22" y="43.42"/><use xlink:href="#23" y="45.591"/><use xlink:href="#24" y="47.762"/><use xlink:href="#25" y="49.933"/><use xlink:href="#26" y="52.104"/><use xlink:href="#27" y="54.275"/><use xlink:href="#28" y="56.446"/><use xlink:href="#29" y="58.617"/></svg><svg x="4600"><use xlink:href="#a"/><use xlink:href="#b" x="-.004" y="62.934"/><use xlink:href="#4"/><use xlink:href="#5" y="2.171"/><use xlink:href="#6" y="6.513"/><use xlink:href="#7" y="10.855"/><use xlink:href="#8" y="13.026"/><use xlink:href="#9" y="15.197"/><use xlink:href="#10" y="17.368"/><use xlink:href="#11" y="19.539"/><use xlink:href="#12" y="21.71"/><use xlink:href="#13" y="23.881"/><use xlink:href="#14" y="26.052"/><use xlink:href="#15" y="28.223"/><use xlink:href="#16" y="30.394"/><use xlink:href="#17" y="32.565"/><use xlink:href="#18" y="34.736"/><use xlink:href="#19" y="36.907"/><use xlink:href="#20" y="39.078"/><use xlink:href="#21" y="41.249"/><use xlink:href="#22" y="43.42"/><use xlink:href="#23" y="45.591"/><use xlink:href="#24" y="47.762"/><use xlink:href="#25" y="49.933"/><use xlink:href="#26" y="52.104"/><use xlink:href="#27" y="54.275"/><use xlink:href="#28" y="56.446"/><use xlink:href="#29" y="58.617"/><use xlink:href="#30" y="60.788"/></svg><svg x="4700"><use xlink:href="#a"/><use xlink:href="#b" x="-.004" y="65.105"/><use xlink:href="#4"/><use xlink:href="#5" y="2.171"/><use xlink:href="#6" y="6.513"/><use xlink:href="#7" y="10.855"/><use xlink:href="#8" y="13.026"/><use xlink:href="#9" y="15.197"/><use xlink:href="#10" y="17.368"/><use xlink:href="#11" y="19.539"/><use xlink:href="#12" y="21.71"/><use xlink:href="#13" y="23.881"/><use xlink:href="#14" y="26.052"/><use xlink:href="#15" y="28.223"/><use xlink:href="#16" y="30.394"/><use xlink:href="#17" y="32.565"/><use xlink:href="#18" y="34.736"/><use xlink:href="#19" y="36.907"/><use xlink:href="#20" y="39.078"/><use xlink:href="#21" y="41.249"/><use xlink:href="#22" y="43.42"/><use xlink:href="#23" y="45.591"/><use xlink:href="#24" y="47.762"/><use xlink:href="#25" y="49.933"/><use xlink:href="#26" y="52.104"/><use xlink:href="#27" y="54.275"/><use xlink:href="#28" y="56.446"/><use xlink:href="#29" y="58.617"/><use xlink:href="#30" y="60.788"/><use xlink:href="#31" y="62.959"/></svg><svg x="4800"><use xlink:href="#a"/><use xlink:href="#b" x="-.004" y="67.276"/><use xlink:href="#4"/><use xlink:href="#5" y="2.171"/><use xlink:href="#6" y="6.513"/><use xlink:href="#7" y="10.855"/><use xlink:href="#8" y="13.026"/><use xlink:href="#9" y="15.197"/><use xlink:href="#10" y="17.368"/><use xlink:href="#11" y="19.539"/><use xlink:href="#12" y="21.71"/><use xlink:href="#13" y="23.881"/><use xlink:href="#14" y="26.052"/><use xlink:href="#15" y="28.223"/><use xlink:href="#16" y="30.394"/><use xlink:href="#17" y="32.565"/><use xlink:href="#18" y="34.736"/><use xlink:href="#19" y="36.907"/><use xlink:href="#20" y="39.078"/><use xlink:href="#21" y="41.249"/><use xlink:href="#22" y="43.42"/><use xlink:href="#23" y="45.591"/><use xlink:href="#24" y="47.762"/><use xlink:href="#25" y="49.933"/><use xlink:href="#26" y="52.104"/><use xlink:href="#27" y="54.275"/><use xlink:href="#28" y="56.446"/><use xlink:href="#29" y="58.617"/><use xlink:href="#30" y="60.788"/><use xlink:href="#31" y="62.959"/><use xlink:href="#32" y="65.13"/></svg><svg x="4900"><use xlink:href="#a"/><use xlink:href="#b" x="-.004" y="69.447"/><use xlink:href="#4"/><use xlink:href="#5" y="2.171"/><use xlink:href="#6" y="6.513"/><use xlink:href="#7" y="10.855"/><use xlink:href="#8" y="13.026"/><use xlink:href="#9" y="15.197"/><use xlink:href="#10" y="17.368"/><use xlink:href="#11" y="19.539"/><use xlink:href="#12" y="21.71"/><use xlink:href="#13" y="23.881"/><use xlink:href="#14" y="26.052"/><use xlink:href="#15" y="28.223"/><use xlink:href="#16" y="30.394"/><use xlink:href="#17" y="32.565"/><use xlink:href="#18" y="34.736"/><use xlink:href="#19" y="36.907"/><use xlink:href="#20" y="39.078"/><use xlink:href="#21" y="41.249"/><use xlink:href="#22" y="43.42"/><use xlink:href="#23" y="45.591"/><use xlink:href="#24" y="47.762"/><use xlink:href="#25" y="49.933"/><use xlink:href="#26" y="52.104"/><use xlink:href="#27" y="54.275"/><use xlink:href="#28" y="56.446"/><use xlink:href="#29" y="58.617"/><use xlink:href="#30" y="60.788"/><use xlink:href="#31" y="62.959"/><use xlink:href="#32" y="65.13"/><use xlink:href="#33" y="67.301"/></svg><svg x="5000"><use xlink:href="#a"/><use xlink:href="#b" x="-.004" y="73.789"/><use xlink:href="#4"/><use xlink:href="#5" y="2.171"/><use xlink:href="#6" y="6.513"/><use xlink:href="#7" y="10.855"/><use xlink:href="#8" y="13.026"/><use xlink:href="#9" y="15.197"/><use xlink:href="#10" y="17.368"/><use xlink:href="#11" y="19.539"/><use xlink:href="#12" y="21.71"/><use xlink:href="#13" y="23.881"/><use xlink:href="#14" y="26.052"/><use xlink:href="#15" y="28.223"/><use xlink:href="#16" y="30.394"/><use xlink:href="#17" y="32.565"/><use xlink:href="#18" y="34.736"/><use xlink:href="#19" y="36.907"/><use xlink:href="#20" y="39.078"/><use xlink:href="#21" y="41.249"/><use xlink:href="#22" y="43.42"/><use xlink:href="#23" y="45.591"/><use xlink:href="#24" y="47.762"/><use xlink:href="#25" y="49.933"/><use xlink:href="#26" y="52.104"/><use xlink:href="#27" y="54.275"/><use xlink:href="#28" y="56.446"/><use xlink:href="#29" y="58.617"/><use xlink:href="#30" y="60.788"/><use xlink:href="#31" y="62.959"/><use xlink:href="#32" y="65.13"/><use xlink:href="#33" y="67.301"/><use xlink:href="#34" y="69.472"/><use xlink:href="#35" y="71.643"/></svg><svg x="5100"><use xlink:href="#a"/><use xlink:href="#b" x="-.004" y="75.96"/><use xlink:href="#4"/><use xlink:href="#5" y="2.171"/><use xlink:href="#6" y="6.513"/><use xlink:href="#7" y="10.855"/><use xlink:href="#8" y="13.026"/><use xlink:href="#9" y="15.197"/><use xlink:href="#10" y="17.368"/><use xlink:href="#11" y="19.539"/><use xlink:href="#12" y="21.71"/><use xlink:href="#13" y="23.881"/><use xlink:href="#14" y="26.052"/><use xlink:href="#15" y="28.223"/><use xlink:href="#16" y="30.394"/><use xlink:href="#17" y="32.565"/><use xlink:href="#18" y="34.736"/><use xlink:href="#19" y="36.907"/><use xlink:href="#20" y="39.078"/><use xlink:href="#21" y="41.249"/><use xlink:href="#22" y="43.42"/><use xlink:href="#23" y="45.591"/><use xlink:href="#24" y="47.762"/><use xlink:href="#25" y="49.933"/><use xlink:href="#26" y="52.104"/><use xlink:href="#27" y="54.275"/><use xlink:href="#28" y="56.446"/><use xlink:href="#29" y="58.617"/><use xlink:href="#30" y="60.788"/><use xlink:href="#31" y="62.959"/><use xlink:href="#32" y="65.13"/><use xlink:href="#33" y="67.301"/><use xlink:href="#34" y="69.472"/><use xlink:href="#35" y="71.643"/><use xlink:href="#36" y="73.814"/></svg><svg x="5200"><use xlink:href="#a"/><use xlink:href="#b" x="-.004" y="78.131"/><use xlink:href="#4"/><use xlink:href="#5" y="2.171"/><use xlink:href="#6" y="6.513"/><use xlink:href="#7" y="10.855"/><use xlink:href="#8" y="13.026"/><use xlink:href="#9" y="15.197"/><use xlink:href="#10" y="17.368"/><use xlink:href="#11" y="19.539"/><use xlink:href="#12" y="21.71"/><use xlink:href="#13" y="23.881"/><use xlink:href="#14" y="26.052"/><use xlink:href="#15" y="28.223"/><use xlink:href="#16" y="30.394"/><use xlink:href="#17" y="32.565"/><use xlink:href="#18" y="34.736"/><use xlink:href="#19" y="36.907"/><use xlink:href="#20" y="39.078"/><use xlink:href="#21" y="41.249"/><use xlink:href="#22" y="43.42"/><use xlink:href="#23" y="45.591"/><use xlink:href="#24" y="47.762"/><use xlink:href="#25" y="49.933"/><use xlink:href="#26" y="52.104"/><use xlink:href="#27" y="54.275"/><use xlink:href="#28" y="56.446"/><use xlink:href="#29" y="58.617"/><use xlink:href="#30" y="60.788"/><use xlink:href="#31" y="62.959"/><use xlink:href="#32" y="65.13"/><use xlink:href="#33" y="67.301"/><use xlink:href="#34" y="69.472"/><use xlink:href="#35" y="71.643"/><use xlink:href="#36" y="73.814"/><use xlink:href="#37" y="75.985"/></svg><svg x="5300"><use xlink:href="#a"/><use xlink:href="#b" x="-.004" y="78.131"/><use xlink:href="#5"/><use xlink:href="#6" y="4.342"/><use xlink:href="#7" y="8.684"/><use xlink:href="#8" y="10.855"/><use xlink:href="#9" y="13.026"/><use xlink:href="#10" y="15.197"/><use xlink:href="#11" y="17.368"/><use xlink:href="#12" y="19.539"/><use xlink:href="#13" y="21.71"/><use xlink:href="#14" y="23.881"/><use xlink:href="#15" y="26.052"/><use xlink:href="#16" y="28.223"/><use xlink:href="#17" y="30.394"/><use xlink:href="#18" y="32.565"/><use xlink:href="#19" y="34.736"/><use xlink:href="#20" y="36.907"/><use xlink:href="#21" y="39.078"/><use xlink:href="#22" y="41.249"/><use xlink:href="#23" y="43.42"/><use xlink:href="#24" y="45.591"/><use xlink:href="#25" y="47.762"/><use xlink:href="#26" y="49.933"/><use xlink:href="#27" y="52.104"/><use xlink:href="#28" y="54.275"/><use xlink:href="#29" y="56.446"/><use xlink:href="#30" y="58.617"/><use xlink:href="#31" y="60.788"/><use xlink:href="#32" y="62.959"/><use xlink:href="#33" y="65.13"/><use xlink:href="#34" y="67.301"/><use xlink:href="#35" y="69.472"/><use xlink:href="#36" y="71.643"/><use xlink:href="#37" y="73.814"/><use xlink:href="#38" y="75.985"/></svg><svg x="5400"><use xlink:href="#a"/><use xlink:href="#b" x="-.004" y="78.131"/><use xlink:href="#6"/><use xlink:href="#7" y="4.342"/><use xlink:href="#8" y="6.513"/><use xlink:href="#9" y="8.684"/><use xlink:href="#10" y="10.855"/><use xlink:href="#11" y="13.026"/><use xlink:href="#12" y="15.197"/><use xlink:href="#13" y="17.368"/><use xlink:href="#14" y="19.539"/><use xlink:href="#15" y="21.71"/><use xlink:href="#16" y="23.881"/><use xlink:href="#17" y="26.052"/><use xlink:href="#18" y="28.223"/><use xlink:href="#19" y="30.394"/><use xlink:href="#20" y="32.565"/><use xlink:href="#21" y="34.736"/><use xlink:href="#22" y="36.907"/><use xlink:href="#23" y="39.078"/><use xlink:href="#24" y="41.249"/><use xlink:href="#25" y="43.42"/><use xlink:href="#26" y="45.591"/><use xlink:href="#27" y="47.762"/><use xlink:href="#28" y="49.933"/><use xlink:href="#29" y="52.104"/><use xlink:href="#30" y="54.275"/><use xlink:href="#31" y="56.446"/><use xlink:href="#32" y="58.617"/><use xlink:href="#33" y="60.788"/><use xlink:href="#34" y="62.959"/><use xlink:href="#35" y="65.13"/><use xlink:href="#36" y="67.301"/><use xlink:href="#37" y="69.472"/><use xlink:href="#38" y="71.643"/><use xlink:href="#39" y="73.814"/><use xlink:href="#40" y="75.985"/></svg><svg x="5500"><use xlink:href="#a"/><use xlink:href="#b" x="-.004" y="78.131"/><use xlink:href="#7" y="2.171"/><use xlink:href="#8" y="4.342"/><use xlink:href="#9" y="6.513"/><use xlink:href="#10" y="8.684"/><use xlink:href="#11" y="10.855"/><use xlink:href="#12" y="13.026"/><use xlink:href="#13" y="15.197"/><use xlink:href="#14" y="17.368"/><use xlink:href="#15" y="19.539"/><use xlink:href="#16" y="21.71"/><use xlink:href="#17" y="23.881"/><use xlink:href="#18" y="26.052"/><use xlink:href="#19" y="28.223"/><use xlink:href="#20" y="30.394"/><use xlink:href="#21" y="32.565"/><use xlink:href="#22" y="34.736"/><use xlink:href="#23" y="36.907"/><use xlink:href="#24" y="39.078"/><use xlink:href="#25" y="41.249"/><use xlink:href="#26" y="43.42"/><use xlink:href="#27" y="45.591"/><use xlink:href="#28" y="47.762"/><use xlink:href="#29" y="49.933"/><use xlink:href="#30" y="52.104"/><use xlink:href="#31" y="54.275"/><use xlink:href="#32" y="56.446"/><use xlink:href="#33" y="58.617"/><use xlink:href="#34" y="60.788"/><use xlink:href="#35" y="62.959"/><use xlink:href="#36" y="65.13"/><use xlink:href="#37" y="67.301"/><use xlink:href="#38" y="69.472"/><use xlink:href="#39" y="71.643"/><use xlink:href="#40" y="73.814"/><use xlink:href="#11" y="75.985"/></svg><svg x="5600"><use xlink:href="#a"/><use xlink:href="#b" x="-.004" y="78.131"/><use xlink:href="#7"/><use xlink:href="#8" y="2.171"/><use xlink:href="#9" y="4.342"/><use xlink:href="#10" y="6.513"/><use xlink:href="#11" y="8.684"/><use xlink:href="#12" y="10.855"/><use xlink:href="#13" y="13.026"/><use xlink:href="#14" y="15.197"/><use xlink:href="#15" y="17.368"/><use xlink:href="#16" y="19.539"/><use xlink:href="#17" y="21.71"/><use xlink:href="#18" y="23.881"/><use xlink:href="#19" y="26.052"/><use xlink:href="#20" y="28.223"/><use xlink:href="#21" y="30.394"/><use xlink:href="#22" y="32.565"/><use xlink:href="#23" y="34.736"/><use xlink:href="#24" y="36.907"/><use xlink:href="#25" y="39.078"/><use xlink:href="#26" y="41.249"/><use xlink:href="#27" y="43.42"/><use xlink:href="#28" y="45.591"/><use xlink:href="#29" y="47.762"/><use xlink:href="#30" y="49.933"/><use xlink:href="#31" y="52.104"/><use xlink:href="#32" y="54.275"/><use xlink:href="#33" y="56.446"/><use xlink:href="#34" y="58.617"/><use xlink:href="#35" y="60.788"/><use xlink:href="#36" y="62.959"/><use xlink:href="#37" y="65.13"/><use xlink:href="#38" y="67.301"/><use xlink:href="#39" y="69.472"/><use xlink:href="#40" y="71.643"/><use xlink:href="#11" y="73.814"/><use xlink:href="#41" y="75.985"/></svg><svg x="5700"><use xlink:href="#a"/><use xlink:href="#b" x="-.004" y="78.131"/><use xlink:href="#7"/><use xlink:href="#8" y="2.171"/><use xlink:href="#9" y="4.342"/><use xlink:href="#10" y="6.513"/><use xlink:href="#11" y="8.684"/><use xlink:href="#12" y="10.855"/><use xlink:href="#13" y="13.026"/><use xlink:href="#14" y="15.197"/><use xlink:href="#15" y="17.368"/><use xlink:href="#16" y="19.539"/><use xlink:href="#17" y="21.71"/><use xlink:href="#18" y="23.881"/><use xlink:href="#19" y="26.052"/><use xlink:href="#20" y="28.223"/><use xlink:href="#21" y="30.394"/><use xlink:href="#22" y="32.565"/><use xlink:href="#23" y="34.736"/><use xlink:href="#24" y="36.907"/><use xlink:href="#25" y="39.078"/><use xlink:href="#26" y="41.249"/><use xlink:href="#27" y="43.42"/><use xlink:href="#28" y="45.591"/><use xlink:href="#29" y="47.762"/><use xlink:href="#30" y="49.933"/><use xlink:href="#31" y="52.104"/><use xlink:href="#32" y="54.275"/><use xlink:href="#33" y="56.446"/><use xlink:href="#34" y="58.617"/><use xlink:href="#35" y="60.788"/><use xlink:href="#36" y="62.959"/><use xlink:href="#37" y="65.13"/><use xlink:href="#38" y="67.301"/><use xlink:href="#39" y="69.472"/><use xlink:href="#40" y="71.643"/><use xlink:href="#11" y="73.814"/><use xlink:href="#41" y="75.985"/></svg><svg x="5800"><use xlink:href="#a"/><use xlink:href="#b" x="1.996" y="78.131"/><use xlink:href="#8"/><use xlink:href="#9" y="2.171"/><use xlink:href="#10" y="4.342"/><use xlink:href="#11" y="6.513"/><use xlink:href="#12" y="8.684"/><use xlink:href="#13" y="10.855"/><use xlink:href="#14" y="13.026"/><use xlink:href="#15" y="15.197"/><use xlink:href="#16" y="17.368"/><use xlink:href="#17" y="19.539"/><use xlink:href="#18" y="21.71"/><use xlink:href="#19" y="23.881"/><use xlink:href="#20" y="26.052"/><use xlink:href="#21" y="28.223"/><use xlink:href="#22" y="30.394"/><use xlink:href="#23" y="32.565"/><use xlink:href="#24" y="34.736"/><use xlink:href="#25" y="36.907"/><use xlink:href="#26" y="39.078"/><use xlink:href="#27" y="41.249"/><use xlink:href="#28" y="43.42"/><use xlink:href="#29" y="45.591"/><use xlink:href="#30" y="47.762"/><use xlink:href="#31" y="49.933"/><use xlink:href="#32" y="52.104"/><use xlink:href="#33" y="54.275"/><use xlink:href="#34" y="56.446"/><use xlink:href="#35" y="58.617"/><use xlink:href="#36" y="60.788"/><use xlink:href="#37" y="62.959"/><use xlink:href="#38" y="65.13"/><use xlink:href="#39" y="67.301"/><use xlink:href="#40" y="69.472"/><use xlink:href="#11" y="71.643"/><use xlink:href="#41" y="73.814"/><use xlink:href="#1" y="78.156"/></svg></svg></g></g></svg></svg>